<svg id="Layer_1" data-name="Layer 1" xmlns="http://www.w3.org/2000/svg" viewBox="0 0 149.13 65.65"><defs><style>.cls-1{fill:#e92629;}.cls-2{fill:#fff;}.cls-3{fill:#566575;}.cls-4{fill:#747c83;}.cls-5{fill:#da9728;}.cls-6{fill:#4382bd;}</style></defs><title>movu-logo-white</title><rect class="cls-1" x="132.25" y="48.35" width="16.68" height="16.68" transform="translate(65.23 188.15) rotate(-82.5)"/><polygon class="cls-2" points="145.13 55.28 141.54 54.81 142.01 51.21 138.9 50.8 138.43 54.4 134.83 53.93 134.42 57.03 138.02 57.51 137.55 61.1 140.65 61.51 141.13 57.91 144.73 58.39 145.13 55.28"/><path class="cls-2" d="M59.93,17.78a21.26,21.26,0,0,0-16.45,7.34V17.24H28.53L22.19,33.62h-.1L15.75,17.24H.82v35.4h11V31.93h.1l7.69,20.71h5.08l7.69-20.71h.1V52.64h11V48a18.39,18.39,0,0,1-3.72-11.09c0-.3,0-.6,0-.9.5,9.24,9.33,16.61,20.16,16.61,8.44,0,15.68-4.48,18.69-10.84L74.42,23.09A21.77,21.77,0,0,0,59.93,17.78Zm0,25.35a8.48,8.48,0,1,1,8.49-8.48A8.48,8.48,0,0,1,59.93,43.13Z" transform="translate(-0.82 -0.53)"/><path class="cls-2" d="M131.06,17.24V36.07c0,3.54-.44,7.72-6.06,7.72-5.78,0-6.22-4.19-6.22-7.72V17.24H99L92.11,39.81H92L85,17.24H72.34l12.57,35.4h14l12.35-34.41-4,16.55v3.67c0,9.59,7.75,14.19,17.6,14.19s17.55-4.6,17.55-14.19V17.24Z" transform="translate(-0.82 -0.53)"/><path class="cls-2" d="M79.88,62a6.33,6.33,0,0,0,0,.8A2,2,0,0,0,80.74,64a2.38,2.38,0,0,0,.75.34,3.55,3.55,0,0,0,.89.11,3.68,3.68,0,0,0,.86-.09,2.18,2.18,0,0,0,.67-.27,1.28,1.28,0,0,0,.43-.43,1.1,1.1,0,0,0,.15-.56,1,1,0,0,0-.15-.54,1.21,1.21,0,0,0-.48-.4,4.55,4.55,0,0,0-.87-.32c-.36-.1-.8-.2-1.32-.31a9.4,9.4,0,0,1-1.54-.45,3.87,3.87,0,0,1-1.06-.61,2.2,2.2,0,0,1-.61-.82,2.73,2.73,0,0,1-.2-1.07,2.61,2.61,0,0,1,.28-1.19,2.84,2.84,0,0,1,.78-.94,3.8,3.8,0,0,1,1.2-.61,5.2,5.2,0,0,1,1.56-.22,5.27,5.27,0,0,1,1.56.22,4,4,0,0,1,1.24.63,3.17,3.17,0,0,1,.86,1,3.54,3.54,0,0,1,.39,1.35H84.25a1.87,1.87,0,0,0-2.11-1.46,2.75,2.75,0,0,0-1.45.31,1,1,0,0,0-.5.86.69.69,0,0,0,.11.39,1,1,0,0,0,.35.3,3.1,3.1,0,0,0,.62.25c.25.08.55.15.91.23l1,.21a9.43,9.43,0,0,1,1,.28,5.84,5.84,0,0,1,.89.39,2.89,2.89,0,0,1,.73.56,2.45,2.45,0,0,1,.5.78,3,3,0,0,1-.12,2.34,3,3,0,0,1-.83,1,4,4,0,0,1-1.25.66,5,5,0,0,1-1.58.24,6.21,6.21,0,0,1-1.89-.26,3.94,3.94,0,0,1-1.37-.73A3.3,3.3,0,0,1,78.32,64a3.57,3.57,0,0,1-.35-1.3,7,7,0,0,1,0-.72Z" transform="translate(-0.82 -0.53)"/><path class="cls-2" d="M93.79,62.84a4.06,4.06,0,0,1-.54,1.85,2.74,2.74,0,0,1-.69.81,2.87,2.87,0,0,1-.93.49,3.54,3.54,0,0,1-1.11.17,3.92,3.92,0,0,1-1.45-.26A3.19,3.19,0,0,1,88,65.16a3.35,3.35,0,0,1-.73-1.22A5,5,0,0,1,87,62.29a4.87,4.87,0,0,1,.26-1.64,3.38,3.38,0,0,1,.72-1.22,3.08,3.08,0,0,1,1.13-.76,3.89,3.89,0,0,1,1.46-.26,3.67,3.67,0,0,1,1.11.16,3,3,0,0,1,.92.48,2.74,2.74,0,0,1,.68.8,3,3,0,0,1,.3,1.38H91.82a1.83,1.83,0,0,0-.5-1,1.3,1.3,0,0,0-.79-.24,1.53,1.53,0,0,0-.68.15,1.45,1.45,0,0,0-.53.44,1.49,1.49,0,0,0-.27.66A4.7,4.7,0,0,0,89,62.29a3.38,3.38,0,0,0,.07.82,2,2,0,0,0,.34.77,1.1,1.1,0,0,0,.47.37,1.55,1.55,0,0,0,.68.15,1.32,1.32,0,0,0,.41-.06,1.14,1.14,0,0,0,.36-.2,1.5,1.5,0,0,0,.27-.33,1.73,1.73,0,0,0,.27-1Z" transform="translate(-0.82 -0.53)"/><path class="cls-2" d="M96.11,59a2.81,2.81,0,0,1,1.75-.62q2.68,0,2.68,2.86V66H98.66V61.25a1.7,1.7,0,0,0-.22-1,.88.88,0,0,0-.75-.3,2.25,2.25,0,0,0-1.58.91V66H94.26V55.65h1.86Z" transform="translate(-0.82 -0.53)"/><path class="cls-2" d="M111.33,58.46,109.07,66h-1.66l-1.26-4.29L104.89,66h-1.68l-2.27-7.54H103l1.06,4.36,1.28-4.36H107l1.3,4.36,1.06-4.36Z" transform="translate(-0.82 -0.53)"/><path class="cls-2" d="M118.27,63.68a3.36,3.36,0,0,1-.44,1.07A3,3,0,0,1,116.15,66a3.84,3.84,0,0,1-1.15.17,4.08,4.08,0,0,1-1.5-.27,3.18,3.18,0,0,1-1.16-.76,3.39,3.39,0,0,1-.75-1.22,5.16,5.16,0,0,1,0-3.25,3.49,3.49,0,0,1,.73-1.22,3.15,3.15,0,0,1,1.12-.77,3.74,3.74,0,0,1,1.44-.27,3.86,3.86,0,0,1,1.46.26,3.05,3.05,0,0,1,1.11.76,3.36,3.36,0,0,1,.71,1.22,5,5,0,0,1,.25,1.64v.58h-5.14a2.23,2.23,0,0,0,.6,1.31,1.59,1.59,0,0,0,1.13.44,1.56,1.56,0,0,0,.43-.06,1.49,1.49,0,0,0,.4-.18,1.39,1.39,0,0,0,.32-.29,1.18,1.18,0,0,0,.2-.41Zm-1.85-2.35a1.94,1.94,0,0,0-.59-1,1.46,1.46,0,0,0-1-.34,1.48,1.48,0,0,0-1,.34,1.92,1.92,0,0,0-.6,1Z" transform="translate(-0.82 -0.53)"/><path class="cls-2" d="M121.13,57.56h-1.78V55.63h1.78Zm0,8.43h-1.78V58.46h1.78Z" transform="translate(-0.82 -0.53)"/><path class="cls-2" d="M128.71,66h-6.93V64.54l4-4.44H122V58.46h6.45V59.9l-4,4.43h4.26Z" transform="translate(-0.82 -0.53)"/><path class="cls-2" d="M81.14,15.24C80,21,72,20.86,62.35,19s-17.13-4.75-16-10.52S56.16-.45,65.77,1.42,82.26,9.47,81.14,15.24Z" transform="translate(-0.82 -0.53)"/><path class="cls-3" d="M62.28,19.34C54.67,17.86,44.69,15.12,46,8.41c1.16-6,10.06-9.25,19.84-7.34s16.8,8.29,15.65,14.24C80.18,22,69.9,20.82,62.28,19.34ZM65.7,1.76C56.3-.06,47.77,3,46.69,8.55c-.9,4.63,4.1,7.84,15.73,10.1s17.47,1.16,18.37-3.47C81.87,9.61,75.1,3.59,65.7,1.76Z" transform="translate(-0.82 -0.53)"/><path class="cls-3" d="M50.27,17.36h0C47.56,19.18,54.12,24.62,61,26s15-1.22,13.17-4h0A39.6,39.6,0,0,0,62.55,18,39.6,39.6,0,0,0,50.27,17.36Z" transform="translate(-0.82 -0.53)"/><path class="cls-3" d="M74.57,19.93,75,17.58c-.87-2.92-5.3-5.83-11-6.94S53,10.55,51.13,12.94l-.46,2.35a44.58,44.58,0,0,1,23.89,4.65Z" transform="translate(-0.82 -0.53)"/><path class="cls-4" d="M62.94,15.95a42.69,42.69,0,0,0-12.27-.66l-.15.77v.05l-.24,1.24a39.6,39.6,0,0,1,12.28.6A39.6,39.6,0,0,1,74.16,22l.24-1.24V20.7l.15-.77A42.71,42.71,0,0,0,62.94,15.95Z" transform="translate(-0.82 -0.53)"/><path class="cls-4" d="M62.94,15.95a42.69,42.69,0,0,0-12.27-.66l-.15.77v.05l-.24,1.24a39.6,39.6,0,0,1,12.28.6A39.6,39.6,0,0,1,74.16,22l.24-1.24V20.7l.15-.77A42.71,42.71,0,0,0,62.94,15.95Z" transform="translate(-0.82 -0.53)"/><path class="cls-5" d="M62.94,15.95a42.69,42.69,0,0,0-12.27-.66l-.15.77v.05l-.24,1.24a39.6,39.6,0,0,1,12.28.6A39.6,39.6,0,0,1,74.16,22l.24-1.24V20.7l.15-.77A42.71,42.71,0,0,0,62.94,15.95Z" transform="translate(-0.82 -0.53)"/><ellipse class="cls-6" cx="64.46" cy="8.15" rx="5.56" ry="4.73" transform="translate(43.34 69.34) rotate(-79)"/><path class="cls-2" d="M68,6.23l-2.11-.41L64.5,8h0L64,5.47l-2.11-.41-1,5,1.55.3.57-2.92h0l.52,3.13.72.14L66,8h0l-.57,2.92,1.55.3Z" transform="translate(-0.82 -0.53)"/></svg>